<svg width="32" height="32" viewBox="0 0 32 32" fill="none" xmlns="http://www.w3.org/2000/svg">
<path d="M16.5 2C9.05172 2 3 8.06667 3 15.5333V28.6C3 29.3467 3.65172 30 4.39655 30H6.25862C7.00345 30 7.65517 29.3467 7.65517 28.6V27.6667C7.65517 27.3867 7.84138 27.2 8.12069 27.2H9.98276C10.2621 27.2 10.4483 27.3867 10.4483 27.6667V28.6C10.4483 29.3467 11.1 30 11.8448 30H13.7069C14.4517 30 15.1034 29.3467 15.1034 28.6V27.6667C15.1034 27.3867 15.2897 27.2 15.569 27.2H17.431C17.7103 27.2 17.8966 27.3867 17.8966 27.6667V28.6C17.8966 29.3467 18.5483 30 19.2931 30H21.1552C21.9 30 22.5517 29.3467 22.5517 28.6V27.6667C22.5517 27.3867 22.7379 27.2 23.0172 27.2H24.8793C25.1586 27.2 25.3448 27.3867 25.3448 27.6667V28.6C25.3448 29.3467 25.9966 30 26.7414 30H28.6034C29.3483 30 30 29.3467 30 28.6V15.5333C30 8.06667 23.9483 2 16.5 2ZM13.2414 12.8267C13.2414 13.0133 13.0552 13.2 12.869 13.2933C12.031 13.48 11.3793 14.2267 11.3793 15.16C11.3793 16 12.031 16.7467 12.869 16.9333C13.1483 17.0267 13.2414 17.2133 13.2414 17.4933C12.9621 18.8 11.8448 19.7333 10.4483 19.7333C8.86552 19.7333 7.65517 18.52 7.65517 16.9333V11.3333C7.65517 9.74667 8.86552 8.53333 10.4483 8.53333C12.031 8.53333 13.2414 9.74667 13.2414 11.3333V12.8267ZM24.4138 12.8267C24.4138 13.0133 24.2276 13.2 24.0414 13.2933C23.2034 13.48 22.5517 14.2267 22.5517 15.16C22.5517 16 23.2034 16.7467 24.0414 16.9333C24.3207 17.0267 24.4138 17.2133 24.4138 17.4933C24.1345 18.8 23.0172 19.7333 21.6207 19.7333C20.0379 19.7333 18.8276 18.52 18.8276 16.9333V11.3333C18.8276 9.74667 20.0379 8.53333 21.6207 8.53333C23.2034 8.53333 24.4138 9.74667 24.4138 11.3333V12.8267Z" fill="#FF0000"/>
</svg>
